<svg xmlns="http://www.w3.org/2000/svg" xmlns:xlink="http://www.w3.org/1999/xlink" version="1.1" width="1000" height="1000" viewBox="0 0 1000 1000" xml:space="preserve">
<desc>Created with Fabric.js 3.5.0</desc>
<defs>
</defs>
<g transform="matrix(47.7033 0 0 47.7033 500 500)" id="92924">
<path style="stroke: none; stroke-width: 1; stroke-dasharray: none; stroke-linecap: butt; stroke-dashoffset: 0; stroke-linejoin: miter; stroke-miterlimit: 4; is-custom-font: none; font-file-url: none; fill: rgb(33,33,33); fill-rule: nonzero; opacity: 1;" vector-effect="non-scaling-stroke" transform=" translate(-12.25, -12)" d="M 14.8185 11.795 C 15.2156 11.2028 15.4474 10.49 15.4474 9.72368 C 15.4474 7.66715 13.7802 6 11.7237 6 C 9.66715 6 8 7.66715 8 9.72368 C 8 11.7802 9.66715 13.4474 11.7237 13.4474 C 12.49 13.4474 13.2028 13.2156 13.795 12.8185 L 16.2711 15.2945 L 16.3381 15.3524 L 16.3455 15.3579 C 16.629 15.5682 17.031 15.5451 17.288 15.288 C 17.5707 15.0054 17.5707 14.5472 17.288 14.2646 L 14.8185 11.795 Z M 11.7237 7.44737 C 12.9809 7.44737 14 8.46651 14 9.72368 C 14 10.9809 12.9809 12 11.7237 12 C 10.4665 12 9.44737 10.9809 9.44737 9.72368 C 9.44737 8.46651 10.4665 7.44737 11.7237 7.44737 Z M 6.5 2 C 5.11929 2 4 3.11929 4 4.5 V 19.5 C 4 20.8807 5.11929 22 6.5 22 H 19.75 C 20.1642 22 20.5 21.6642 20.5 21.25 C 20.5 20.8358 20.1642 20.5 19.75 20.5 H 6.5 C 5.94772 20.5 5.5 20.0523 5.5 19.5 H 19.75 C 20.1642 19.5 20.5 19.1642 20.5 18.75 V 4.5 C 20.5 3.11929 19.3807 2 18 2 H 6.5 Z M 19 18 H 5.5 V 4.5 C 5.5 3.94772 5.94772 3.5 6.5 3.5 H 18 C 18.5523 3.5 19 3.94772 19 4.5 V 18 Z" stroke-linecap="round"/>
</g>
</svg>